<svg width="367" height="106" viewBox="0 0 367 106" fill="none" xmlns="http://www.w3.org/2000/svg">
<path fill-rule="evenodd" clip-rule="evenodd" d="M266.297 11.841C284.1 12.1536 298.251 15.2378 312.403 18.7011C358.813 30.0742 374.335 47.7202 342.533 65.0604C293.079 91.9509 177.889 109.55 88.5673 101.428C68.7858 99.638 42.0046 98.0603 22.3752 89.3188C4.11534 81.191 4.87617 71.5285 13.2453 62.583C21.7666 53.4111 38.2005 44.9697 51.2867 39.5435C108.501 15.8691 223.082 -5.64766 326.707 5.69582C328.837 5.91438 330.968 5.53851 331.576 4.85634C332.185 4.17418 331.119 3.44269 329.141 3.22413C222.473 -8.45005 104.24 13.5288 45.3517 37.8931C29.0699 44.6592 7.76791 55.9539 1.68128 67.64C-2.42719 75.6272 0.463364 83.7919 16.2886 90.8944C37.1353 100.206 65.5906 102.03 86.5895 103.936C178.802 112.325 297.947 94.2113 348.922 66.4387C383.16 47.8012 366.726 28.8168 316.816 16.5923C301.599 12.8347 286.078 9.58738 266.753 9.24889C264.622 9.21203 262.797 9.76286 262.797 10.4782C262.645 11.1936 264.318 11.8042 266.297 11.841Z" fill="#4354A6"/>
</svg>
