<svg width="701" height="19" viewBox="0 0 701 19" fill="none" xmlns="http://www.w3.org/2000/svg">
<path fill-rule="evenodd" clip-rule="evenodd" d="M297.372 1.81964C264.478 2.44321 231.969 3.20995 200.269 4.0482C155.392 5.23401 110.534 6.46072 65.9453 8.403C51.9099 9.01635 37.6568 9.40478 23.7091 10.1715C14.9537 10.6519 3.34411 11.3367 1.82051 11.4799C1.0236 11.5616 0.675935 11.6844 0.563595 11.7253C-0.226293 12.0115 -0.0821673 12.2874 0.363681 12.5021C0.542722 12.5941 0.995464 12.8191 2.25226 12.8498C86.3034 14.9454 172.25 10.8564 256.403 10.427C402.339 9.69101 552.699 12.6147 697.477 18.9935C698.74 19.0446 699.969 18.789 700.145 18.4107C700.355 18.0427 699.443 17.6849 698.179 17.6338C553.156 11.2448 402.55 8.31088 256.333 9.05713C177.906 9.45581 97.9305 13.044 19.3946 11.8173C21.199 11.7151 22.9685 11.6128 24.5834 11.5208C38.4749 10.7541 52.6682 10.3759 66.6475 9.76255C111.141 7.82027 155.908 6.59357 200.725 5.41798C256.333 3.94594 314.363 2.67834 372.85 2.08543C393.773 2.17743 414.626 2.26948 435.479 2.38192C480.591 2.62726 525.913 3.34285 570.919 4.30376C584.47 4.60021 598.021 4.90686 611.572 5.17265C616.066 5.26465 627.651 5.53039 629.266 5.50995C631.267 5.4895 631.653 4.99887 631.688 4.91709C631.793 4.73308 631.723 4.4775 630.74 4.26283C630.634 4.23216 630.003 4.12987 628.598 4.06854C546.766 0.44977 459.387 -0.153263 372.921 0.71565C281.715 0.337418 190.158 0.173783 99.1839 0C97.8815 0 96.8177 0.30672 96.8072 0.684953C96.8002 1.06319 97.8498 1.36992 99.1522 1.38014C165.025 1.50281 231.232 1.62541 297.372 1.81964Z" fill="#4354A6"/>
</svg>
