<svg width="1153" height="706" viewBox="0 0 1153 706" fill="none" xmlns="http://www.w3.org/2000/svg">
<path fill-rule="evenodd" clip-rule="evenodd" d="M385.586 682.297C258.991 681.758 131.879 683.727 9.34436 691.994C7.15814 692.141 6.25057 692.43 6.0717 692.496C5.02496 692.888 4.91214 693.305 5.04464 693.647C5.12414 693.856 5.66099 694.735 8.59583 694.825C10.623 694.887 25.0121 694.458 30.5638 694.348C56.6991 693.831 82.7816 693.094 108.851 692.242C167.958 690.317 226.986 688.652 286.186 687.136C319.423 686.284 352.673 685.578 385.904 685C465.847 685.346 545.591 686.693 623.844 688.083C592.74 688.791 564.161 689.509 540.463 689.974C500.502 690.758 460.613 691.683 420.731 692.903C400.241 693.527 379.776 694.206 359.325 695.007C357.059 695.097 351.898 695.19 349.401 695.3C348.341 695.344 347.572 695.416 347.228 695.465C345.068 695.773 344.797 696.405 344.77 696.723C344.757 696.917 344.936 697.972 348.579 698.178C517.998 707.831 694.751 696.601 864.779 705.985C866.773 706.095 868.641 705.586 868.939 704.846C869.237 704.109 867.86 703.419 865.859 703.308C705.722 694.47 539.615 703.921 379.273 696.983C393.284 696.481 407.302 696.028 421.334 695.599C461.143 694.382 500.959 693.459 540.854 692.675C581.001 691.889 635.272 690.354 692.081 689.386C740.834 690.39 789.56 691.517 838.319 692.472C858.889 692.874 879.466 693.207 900.03 693.616C908.484 693.782 930.233 694.48 933.386 694.22C935.838 694.017 936.427 693.368 936.573 693.043C936.725 692.69 936.633 692.252 935.52 691.833C935.175 691.701 934.142 691.426 932.022 691.201C874.683 685.13 780.795 685.226 692.863 686.692C673.949 686.301 655.034 685.928 636.114 685.593C592.8 684.822 549.009 684.048 504.967 683.438C629.085 682.304 753.262 682.63 877.472 683.45C929.623 683.795 1070.2 685.877 1125.56 687.716C1124.89 687.973 1124.49 688.331 1124.53 688.72C1124.63 689.465 1126.34 690.043 1128.36 690.008C1139.79 689.812 1146.39 689.563 1149.01 689.305C1150.64 689.146 1151.52 688.892 1151.94 688.725C1152.94 688.323 1153.13 687.892 1152.93 687.483C1152.8 687.229 1152.49 686.95 1151.78 686.692C1151.3 686.516 1150.13 686.247 1148.15 686.063C1126.38 684.062 939.7 681.155 877.605 680.744C713.512 679.662 549.486 679.441 385.586 682.297ZM887.635 690.667C855.57 689.058 817.981 688.492 778.768 688.529C798.742 688.958 818.723 689.377 838.71 689.768C855.014 690.089 871.324 690.363 887.635 690.667ZM234.353 685.791C192.285 686.937 150.263 688.177 108.208 689.548C103.352 689.705 98.5024 689.859 93.6463 690.011C140.153 687.905 187.144 686.565 234.353 685.791Z" fill="#4354A6"/>
<path fill-rule="evenodd" clip-rule="evenodd" d="M1131.71 5.16661C908.341 11.4461 681.198 7.97283 457.27 9.10347C309.197 9.85993 161.113 11.682 13.1471 12.2921C8.71086 12.3083 5.06234 11.2347 5.00072 9.8844C4.94179 8.53415 8.49395 7.42789 12.9275 7.41162C160.877 6.80156 308.945 4.9795 457.002 4.22303C680.528 3.0924 907.243 6.57382 1130.21 0.302459C1134.63 0.180448 1138.54 1.16464 1138.97 2.50676C1139.37 3.84888 1136.1 5.03647 1131.71 5.16661Z" fill="#4354A6"/>
<path fill-rule="evenodd" clip-rule="evenodd" d="M5.77078 30.2768C12.0503 161.263 8.57704 294.464 9.70768 425.78C10.4642 512.613 12.2862 599.452 12.8963 686.222C12.9126 688.824 11.8389 690.963 10.4886 691C9.13837 691.034 8.0321 688.951 8.01583 686.351C7.40577 599.591 5.58369 512.761 4.82722 425.937C3.69657 294.857 7.17801 161.907 0.9066 31.1565C0.784588 28.5644 1.76878 26.271 3.11091 26.0196C4.45304 25.784 5.64064 27.7005 5.77078 30.2768Z" fill="#4354A6"/>
<path fill-rule="evenodd" clip-rule="evenodd" d="M1149.55 299.372C1148.37 266.478 1146.92 233.969 1145.33 202.269C1143.08 157.392 1140.76 112.534 1137.08 67.9453C1135.92 53.9099 1135.18 39.6568 1133.73 25.7091C1132.82 16.9537 1131.52 5.34411 1131.25 3.82051C1131.09 3.0236 1130.86 2.67593 1130.78 2.56359C1130.24 1.77371 1129.72 1.91783 1129.31 2.36368C1129.14 2.54272 1128.71 2.99546 1128.65 4.25226C1124.68 88.3034 1132.43 174.25 1133.24 258.403C1134.64 404.339 1129.1 554.699 1117.01 699.477C1116.92 700.74 1117.4 701.969 1118.12 702.145C1118.81 702.355 1119.49 701.443 1119.59 700.179C1131.69 555.156 1137.25 404.55 1135.84 258.333C1135.08 179.906 1128.29 99.9305 1130.61 21.3946C1130.8 23.199 1131 24.9685 1131.17 26.5834C1132.62 40.4749 1133.34 54.6682 1134.5 68.6475C1138.18 113.141 1140.51 157.908 1142.73 202.725C1145.52 258.333 1147.93 316.363 1149.05 374.85C1148.87 395.773 1148.7 416.626 1148.49 437.479C1148.02 482.591 1146.67 527.913 1144.85 572.919C1144.28 586.47 1143.7 600.021 1143.2 613.572C1143.02 618.066 1142.52 629.651 1142.56 631.266C1142.6 633.267 1143.53 633.653 1143.68 633.688C1144.03 633.793 1144.52 633.723 1144.92 632.74C1144.98 632.634 1145.17 632.003 1145.29 630.598C1152.15 548.766 1153.29 461.387 1151.64 374.921C1152.36 283.715 1152.67 192.158 1153 101.184C1153 99.8815 1152.42 98.8177 1151.7 98.8072C1150.99 98.8002 1150.4 99.8498 1150.38 101.152C1150.15 167.025 1149.92 233.232 1149.55 299.372Z" fill="#4354A6"/>
</svg>
