<svg width="423" height="232" viewBox="0 0 423 232" fill="none" xmlns="http://www.w3.org/2000/svg">
<path fill-rule="evenodd" clip-rule="evenodd" d="M420.28 4.15662C336.961 0.493577 252.233 2.51965 168.704 1.86012C113.47 1.41884 58.2326 0.355972 3.039 0.00010643C1.38421 -0.00938331 0.0232528 0.616921 0.00026965 1.40457C-0.0217143 2.19222 1.3033 2.83754 2.95709 2.84703C58.1447 3.20289 113.376 4.26576 168.604 4.70704C251.983 5.36657 336.551 3.33574 419.72 6.99404C421.369 7.06521 422.828 6.4911 422.988 5.7082C423.137 4.92529 421.918 4.23253 420.28 4.15662Z" fill="#4354A6"/>
<path fill-rule="evenodd" clip-rule="evenodd" d="M416.843 230.534C420.506 185.624 418.48 139.955 419.14 94.9325C419.581 65.1612 420.644 35.3878 421 5.63804C421.009 4.7461 420.383 4.01253 419.595 4.00015C418.808 3.9883 418.162 4.70249 418.153 5.59389C417.797 35.3404 416.734 65.1106 416.293 94.8787C415.633 139.821 417.664 185.403 414.006 230.232C413.935 231.121 414.509 231.907 415.292 231.993C416.075 232.074 416.767 231.417 416.843 230.534Z" fill="#4354A6"/>
<path fill-rule="evenodd" clip-rule="evenodd" d="M2.84338 223.553C6.50642 179.234 4.48035 134.166 5.13988 89.736C5.58116 60.3565 6.64403 30.9748 6.99989 1.61649C7.00938 0.736282 6.38308 0.0123685 5.59543 0.000143369C4.80779 -0.0115502 4.16247 0.693245 4.15298 1.57292C3.79711 30.928 2.73424 60.3065 2.29297 89.6829C1.63343 134.033 3.66425 179.016 0.00596324 223.255C-0.0652097 224.132 0.5089 224.908 1.2918 224.993C2.0747 225.073 2.76746 224.425 2.84338 223.553Z" fill="#4354A6"/>
<path fill-rule="evenodd" clip-rule="evenodd" d="M420.28 229.157C336.961 225.494 252.233 227.52 168.704 226.86C113.47 226.419 58.2326 225.356 3.039 225C1.38421 224.991 0.0232528 225.617 0.00026965 226.405C-0.0217143 227.192 1.3033 227.838 2.95709 227.847C58.1447 228.203 113.376 229.266 168.604 229.707C251.983 230.367 336.551 228.336 419.72 231.994C421.369 232.065 422.828 231.491 422.988 230.708C423.137 229.925 421.918 229.233 420.28 229.157Z" fill="#4354A6"/>
</svg>
